<mxfile host="app.diagrams.net" modified="2023-02-26T16:16:11.723Z" agent="5.0 (Windows NT 10.0; Win64; x64) AppleWebKit/537.36 (KHTML, like Gecko) Chrome/110.0.0.0 Safari/537.36" etag="FJttdfGqAxPApX_aPOTY" version="20.8.22" type="github">
  <diagram id="__0gWtHmAiDNmOv5s74r" name="Page-1">
    <mxGraphModel dx="3612" dy="2559" grid="0" gridSize="10" guides="1" tooltips="1" connect="1" arrows="1" fold="1" page="1" pageScale="1" pageWidth="827" pageHeight="1169" math="0" shadow="0">
      <root>
        <mxCell id="0" />
        <mxCell id="1" parent="0" />
        <mxCell id="v6x6SdG7z8RjegQlW21O-57" value="" style="rounded=0;whiteSpace=wrap;html=1;fillStyle=solid;fontSize=15;fillColor=none;strokeWidth=3;" parent="1" vertex="1">
          <mxGeometry x="237" y="-313" width="1443" height="2586" as="geometry" />
        </mxCell>
        <mxCell id="v6x6SdG7z8RjegQlW21O-1" value="&lt;font size=&quot;1&quot; style=&quot;&quot;&gt;&lt;b style=&quot;font-size: 25px;&quot;&gt;Responsable marketing&lt;/b&gt;&lt;/font&gt;" style="shape=umlActor;verticalLabelPosition=bottom;verticalAlign=top;html=1;outlineConnect=0;strokeWidth=3;" parent="1" vertex="1">
          <mxGeometry x="-120" y="-25" width="79" height="158" as="geometry" />
        </mxCell>
        <mxCell id="v6x6SdG7z8RjegQlW21O-2" value="&lt;b&gt;&lt;font style=&quot;font-size: 25px;&quot;&gt;Administrateur&lt;/font&gt;&lt;/b&gt;" style="shape=umlActor;verticalLabelPosition=bottom;verticalAlign=top;html=1;outlineConnect=0;strokeWidth=3;perimeterSpacing=2;" parent="1" vertex="1">
          <mxGeometry x="-117" y="627" width="81" height="162" as="geometry" />
        </mxCell>
        <mxCell id="v6x6SdG7z8RjegQlW21O-3" value="&lt;b&gt;&lt;font style=&quot;font-size: 25px;&quot;&gt;Formateur&lt;/font&gt;&lt;/b&gt;" style="shape=umlActor;verticalLabelPosition=bottom;verticalAlign=top;html=1;outlineConnect=0;strokeWidth=3;" parent="1" vertex="1">
          <mxGeometry x="-111" y="1626" width="81" height="162" as="geometry" />
        </mxCell>
        <mxCell id="v6x6SdG7z8RjegQlW21O-8" value="&lt;font size=&quot;1&quot; style=&quot;&quot;&gt;&lt;b style=&quot;font-size: 25px;&quot;&gt;Gérer les campagnes publicitaires&lt;/b&gt;&lt;/font&gt;" style="ellipse;whiteSpace=wrap;html=1;fillStyle=solid;strokeWidth=3;" parent="1" vertex="1">
          <mxGeometry x="485.38" y="-79" width="324.62" height="130" as="geometry" />
        </mxCell>
        <mxCell id="v6x6SdG7z8RjegQlW21O-9" value="&lt;font size=&quot;1&quot; style=&quot;&quot;&gt;&lt;b style=&quot;font-size: 25px;&quot;&gt;Gérer les Newsletters&lt;/b&gt;&lt;/font&gt;" style="ellipse;whiteSpace=wrap;html=1;fillStyle=solid;strokeWidth=3;" parent="1" vertex="1">
          <mxGeometry x="485.38" y="116" width="229.75" height="123" as="geometry" />
        </mxCell>
        <mxCell id="v6x6SdG7z8RjegQlW21O-10" value="&lt;font size=&quot;1&quot; style=&quot;&quot;&gt;&lt;b style=&quot;font-size: 25px;&quot;&gt;Gérer les Étudiants&lt;/b&gt;&lt;/font&gt;" style="ellipse;whiteSpace=wrap;html=1;fillStyle=solid;strokeWidth=3;" parent="1" vertex="1">
          <mxGeometry x="508" y="278" width="218" height="124" as="geometry" />
        </mxCell>
        <mxCell id="v6x6SdG7z8RjegQlW21O-11" value="&lt;font size=&quot;1&quot; style=&quot;&quot;&gt;&lt;b style=&quot;font-size: 25px;&quot;&gt;Gérer les Personnels&lt;/b&gt;&lt;/font&gt;" style="ellipse;whiteSpace=wrap;html=1;fillStyle=solid;strokeWidth=3;" parent="1" vertex="1">
          <mxGeometry x="505.38" y="438" width="217" height="123" as="geometry" />
        </mxCell>
        <mxCell id="v6x6SdG7z8RjegQlW21O-12" value="&lt;font size=&quot;1&quot; style=&quot;&quot;&gt;&lt;b style=&quot;font-size: 25px;&quot;&gt;Gérer les formations&lt;/b&gt;&lt;/font&gt;" style="ellipse;whiteSpace=wrap;html=1;fillStyle=solid;strokeWidth=3;" parent="1" vertex="1">
          <mxGeometry x="515" y="597" width="218" height="124" as="geometry" />
        </mxCell>
        <mxCell id="v6x6SdG7z8RjegQlW21O-13" value="&lt;font size=&quot;1&quot; style=&quot;&quot;&gt;&lt;b style=&quot;font-size: 25px;&quot;&gt;Gérer les certificats&lt;/b&gt;&lt;/font&gt;" style="ellipse;whiteSpace=wrap;html=1;fillStyle=solid;strokeWidth=3;" parent="1" vertex="1">
          <mxGeometry x="504.88" y="768" width="216" height="119" as="geometry" />
        </mxCell>
        <mxCell id="v6x6SdG7z8RjegQlW21O-14" value="&lt;font size=&quot;1&quot; style=&quot;&quot;&gt;&lt;b style=&quot;font-size: 25px;&quot;&gt;Gérer les Documents&lt;/b&gt;&lt;/font&gt;" style="ellipse;whiteSpace=wrap;html=1;fillStyle=solid;strokeWidth=3;" parent="1" vertex="1">
          <mxGeometry x="511.5" y="932" width="211" height="132" as="geometry" />
        </mxCell>
        <mxCell id="v6x6SdG7z8RjegQlW21O-15" value="&lt;b&gt;&lt;font style=&quot;font-size: 25px;&quot;&gt;Gérer la finance de l&#39;&lt;/font&gt;&lt;/b&gt;&lt;span style=&quot;font-size: 25px;&quot;&gt;&lt;b&gt;école&lt;/b&gt;&lt;/span&gt;" style="ellipse;whiteSpace=wrap;html=1;fillStyle=solid;strokeWidth=3;" parent="1" vertex="1">
          <mxGeometry x="481" y="1114" width="284" height="127" as="geometry" />
        </mxCell>
        <mxCell id="v6x6SdG7z8RjegQlW21O-16" value="&lt;font size=&quot;1&quot; style=&quot;&quot;&gt;&lt;b style=&quot;font-size: 25px;&quot;&gt;Gérer la calendriers de l’école&lt;/b&gt;&lt;/font&gt;" style="ellipse;whiteSpace=wrap;html=1;fillStyle=solid;strokeWidth=3;" parent="1" vertex="1">
          <mxGeometry x="522" y="1268" width="316" height="130" as="geometry" />
        </mxCell>
        <mxCell id="v6x6SdG7z8RjegQlW21O-17" value="&lt;font size=&quot;1&quot; style=&quot;&quot;&gt;&lt;b style=&quot;font-size: 25px;&quot;&gt;Consulter son emploi du temps de formation&lt;/b&gt;&lt;/font&gt;" style="ellipse;whiteSpace=wrap;html=1;fillStyle=solid;strokeWidth=3;" parent="1" vertex="1">
          <mxGeometry x="417.88" y="1487" width="347.12" height="139" as="geometry" />
        </mxCell>
        <mxCell id="v6x6SdG7z8RjegQlW21O-18" value="&lt;font size=&quot;1&quot; style=&quot;&quot;&gt;&lt;b style=&quot;font-size: 25px;&quot;&gt;Évaluer les étudiant&lt;/b&gt;&lt;/font&gt;" style="ellipse;whiteSpace=wrap;html=1;fillStyle=solid;strokeWidth=3;" parent="1" vertex="1">
          <mxGeometry x="515" y="1672" width="211" height="122" as="geometry" />
        </mxCell>
        <mxCell id="v6x6SdG7z8RjegQlW21O-19" value="&lt;font size=&quot;1&quot; style=&quot;&quot;&gt;&lt;b style=&quot;font-size: 25px;&quot;&gt;Accéder aux informations des étudiants&lt;/b&gt;&lt;/font&gt;" style="ellipse;whiteSpace=wrap;html=1;fillStyle=solid;strokeWidth=3;" parent="1" vertex="1">
          <mxGeometry x="497.88" y="1851" width="279.12" height="138" as="geometry" />
        </mxCell>
        <mxCell id="v6x6SdG7z8RjegQlW21O-20" value="&lt;font size=&quot;1&quot; style=&quot;&quot;&gt;&lt;b style=&quot;font-size: 25px;&quot;&gt;Communiquer avec les étudiants&lt;/b&gt;&lt;/font&gt;" style="ellipse;whiteSpace=wrap;html=1;fillStyle=solid;strokeWidth=3;" parent="1" vertex="1">
          <mxGeometry x="536" y="2075" width="315.62" height="120" as="geometry" />
        </mxCell>
        <mxCell id="v6x6SdG7z8RjegQlW21O-26" value="" style="endArrow=none;html=1;rounded=0;fontSize=15;entryX=0.028;entryY=0.699;entryDx=0;entryDy=0;entryPerimeter=0;strokeWidth=3;" parent="1" target="v6x6SdG7z8RjegQlW21O-11" edge="1">
          <mxGeometry width="50" height="50" relative="1" as="geometry">
            <mxPoint x="-15" y="679" as="sourcePoint" />
            <mxPoint x="92" y="608" as="targetPoint" />
          </mxGeometry>
        </mxCell>
        <mxCell id="v6x6SdG7z8RjegQlW21O-29" value="" style="endArrow=none;html=1;rounded=0;fontSize=15;strokeWidth=3;" parent="1" target="v6x6SdG7z8RjegQlW21O-12" edge="1">
          <mxGeometry width="50" height="50" relative="1" as="geometry">
            <mxPoint x="-5" y="689" as="sourcePoint" />
            <mxPoint x="340.95600000000013" y="508.97699999999986" as="targetPoint" />
          </mxGeometry>
        </mxCell>
        <mxCell id="v6x6SdG7z8RjegQlW21O-30" value="" style="endArrow=none;html=1;rounded=0;fontSize=15;entryX=0;entryY=0.5;entryDx=0;entryDy=0;strokeWidth=3;" parent="1" target="v6x6SdG7z8RjegQlW21O-13" edge="1">
          <mxGeometry width="50" height="50" relative="1" as="geometry">
            <mxPoint x="-7" y="715" as="sourcePoint" />
            <mxPoint x="335.13745975376014" y="670.3904048838463" as="targetPoint" />
          </mxGeometry>
        </mxCell>
        <mxCell id="v6x6SdG7z8RjegQlW21O-31" value="" style="endArrow=none;html=1;rounded=0;fontSize=15;entryX=0;entryY=0.5;entryDx=0;entryDy=0;strokeWidth=3;" parent="1" target="v6x6SdG7z8RjegQlW21O-14" edge="1">
          <mxGeometry width="50" height="50" relative="1" as="geometry">
            <mxPoint x="3" y="747" as="sourcePoint" />
            <mxPoint x="321" y="835.5" as="targetPoint" />
          </mxGeometry>
        </mxCell>
        <mxCell id="v6x6SdG7z8RjegQlW21O-32" value="" style="endArrow=none;html=1;rounded=0;fontSize=15;entryX=0;entryY=0.5;entryDx=0;entryDy=0;strokeWidth=3;" parent="1" target="v6x6SdG7z8RjegQlW21O-15" edge="1">
          <mxGeometry width="50" height="50" relative="1" as="geometry">
            <mxPoint x="1" y="777" as="sourcePoint" />
            <mxPoint x="321" y="1002" as="targetPoint" />
          </mxGeometry>
        </mxCell>
        <mxCell id="v6x6SdG7z8RjegQlW21O-33" value="" style="endArrow=none;html=1;rounded=0;fontSize=15;entryX=0.035;entryY=0.292;entryDx=0;entryDy=0;entryPerimeter=0;strokeWidth=3;" parent="1" target="v6x6SdG7z8RjegQlW21O-16" edge="1">
          <mxGeometry width="50" height="50" relative="1" as="geometry">
            <mxPoint x="17" y="820" as="sourcePoint" />
            <mxPoint x="323.5" y="1157" as="targetPoint" />
          </mxGeometry>
        </mxCell>
        <mxCell id="v6x6SdG7z8RjegQlW21O-34" value="" style="endArrow=none;html=1;rounded=0;fontSize=15;entryX=0;entryY=0.5;entryDx=0;entryDy=0;strokeWidth=3;" parent="1" target="v6x6SdG7z8RjegQlW21O-10" edge="1">
          <mxGeometry width="50" height="50" relative="1" as="geometry">
            <mxPoint x="-15" y="663" as="sourcePoint" />
            <mxPoint x="340.95600000000013" y="508.97699999999986" as="targetPoint" />
          </mxGeometry>
        </mxCell>
        <mxCell id="v6x6SdG7z8RjegQlW21O-36" value="" style="endArrow=none;html=1;rounded=0;fontSize=15;strokeWidth=3;" parent="1" source="v6x6SdG7z8RjegQlW21O-8" edge="1">
          <mxGeometry width="50" height="50" relative="1" as="geometry">
            <mxPoint x="840" y="766" as="sourcePoint" />
            <mxPoint x="-3" y="36" as="targetPoint" />
          </mxGeometry>
        </mxCell>
        <mxCell id="v6x6SdG7z8RjegQlW21O-37" value="" style="endArrow=none;html=1;rounded=0;fontSize=15;exitX=0;exitY=0.5;exitDx=0;exitDy=0;strokeWidth=3;" parent="1" source="v6x6SdG7z8RjegQlW21O-9" edge="1">
          <mxGeometry width="50" height="50" relative="1" as="geometry">
            <mxPoint x="340.9505138262962" y="8.601070265052385" as="sourcePoint" />
            <mxPoint x="4" y="85" as="targetPoint" />
          </mxGeometry>
        </mxCell>
        <mxCell id="v6x6SdG7z8RjegQlW21O-38" value="" style="endArrow=none;html=1;rounded=0;fontSize=15;entryX=0;entryY=0.5;entryDx=0;entryDy=0;strokeWidth=3;" parent="1" target="v6x6SdG7z8RjegQlW21O-17" edge="1">
          <mxGeometry width="50" height="50" relative="1" as="geometry">
            <mxPoint x="-13" y="1705" as="sourcePoint" />
            <mxPoint x="84" y="1680" as="targetPoint" />
          </mxGeometry>
        </mxCell>
        <mxCell id="v6x6SdG7z8RjegQlW21O-39" value="" style="endArrow=none;html=1;rounded=0;fontSize=15;entryX=0;entryY=0.5;entryDx=0;entryDy=0;strokeWidth=3;" parent="1" target="v6x6SdG7z8RjegQlW21O-18" edge="1">
          <mxGeometry width="50" height="50" relative="1" as="geometry">
            <mxPoint x="-3" y="1715" as="sourcePoint" />
            <mxPoint x="300.9400000000037" y="1531.5" as="targetPoint" />
          </mxGeometry>
        </mxCell>
        <mxCell id="v6x6SdG7z8RjegQlW21O-40" value="" style="endArrow=none;html=1;rounded=0;fontSize=15;entryX=0.002;entryY=0.609;entryDx=0;entryDy=0;entryPerimeter=0;strokeWidth=3;" parent="1" target="v6x6SdG7z8RjegQlW21O-19" edge="1">
          <mxGeometry width="50" height="50" relative="1" as="geometry">
            <mxPoint x="-9" y="1731" as="sourcePoint" />
            <mxPoint x="308.25" y="1711" as="targetPoint" />
          </mxGeometry>
        </mxCell>
        <mxCell id="v6x6SdG7z8RjegQlW21O-41" value="" style="endArrow=none;html=1;rounded=0;fontSize=15;entryX=0;entryY=0.5;entryDx=0;entryDy=0;strokeWidth=3;" parent="1" target="v6x6SdG7z8RjegQlW21O-20" edge="1">
          <mxGeometry width="50" height="50" relative="1" as="geometry">
            <mxPoint x="-11" y="1747" as="sourcePoint" />
            <mxPoint x="298.9609999999998" y="1897.0420000000004" as="targetPoint" />
          </mxGeometry>
        </mxCell>
        <mxCell id="v6x6SdG7z8RjegQlW21O-42" value="&lt;b&gt;&lt;font style=&quot;font-size: 25px;&quot;&gt;S&#39;authentifier&lt;/font&gt;&lt;/b&gt;" style="ellipse;whiteSpace=wrap;html=1;fillStyle=solid;fontSize=15;strokeWidth=3;" parent="1" vertex="1">
          <mxGeometry x="1360" y="967" width="220" height="116" as="geometry" />
        </mxCell>
        <mxCell id="v6x6SdG7z8RjegQlW21O-43" value="&lt;font style=&quot;font-size: 20px;&quot;&gt;&lt;b&gt;&amp;lt;&amp;lt;include&amp;gt;&amp;gt;&lt;/b&gt;&lt;/font&gt;" style="endArrow=open;endSize=12;dashed=1;html=1;rounded=0;fontSize=15;exitX=1;exitY=0.5;exitDx=0;exitDy=0;strokeWidth=3;" parent="1" source="v6x6SdG7z8RjegQlW21O-8" target="v6x6SdG7z8RjegQlW21O-42" edge="1">
          <mxGeometry x="0.0032" y="4" width="160" relative="1" as="geometry">
            <mxPoint x="781" y="1099" as="sourcePoint" />
            <mxPoint x="941" y="1099" as="targetPoint" />
            <Array as="points">
              <mxPoint x="1124" y="471" />
            </Array>
            <mxPoint as="offset" />
          </mxGeometry>
        </mxCell>
        <mxCell id="v6x6SdG7z8RjegQlW21O-44" value="&lt;font style=&quot;font-size: 20px;&quot;&gt;&lt;b&gt;&amp;lt;&amp;lt;include&amp;gt;&amp;gt;&lt;/b&gt;&lt;/font&gt;" style="endArrow=open;endSize=12;dashed=1;html=1;rounded=0;fontSize=15;exitX=0.944;exitY=0.783;exitDx=0;exitDy=0;exitPerimeter=0;strokeWidth=3;" parent="1" source="v6x6SdG7z8RjegQlW21O-9" target="v6x6SdG7z8RjegQlW21O-42" edge="1">
          <mxGeometry x="-0.003" y="23" width="160" relative="1" as="geometry">
            <mxPoint x="730.880000000006" y="-4" as="sourcePoint" />
            <mxPoint x="1333.8965092384333" y="1003.6887166939864" as="targetPoint" />
            <mxPoint as="offset" />
          </mxGeometry>
        </mxCell>
        <mxCell id="v6x6SdG7z8RjegQlW21O-45" value="&lt;font style=&quot;font-size: 20px;&quot;&gt;&lt;b&gt;&amp;lt;&amp;lt;include&amp;gt;&amp;gt;&lt;/b&gt;&lt;/font&gt;" style="endArrow=open;endSize=12;dashed=1;html=1;rounded=0;fontSize=15;exitX=0.993;exitY=0.597;exitDx=0;exitDy=0;exitPerimeter=0;strokeWidth=3;" parent="1" source="v6x6SdG7z8RjegQlW21O-10" target="v6x6SdG7z8RjegQlW21O-42" edge="1">
          <mxGeometry width="160" relative="1" as="geometry">
            <mxPoint x="712.2639999999997" y="222.30899999999974" as="sourcePoint" />
            <mxPoint x="1325.018483794889" y="1005.390202320561" as="targetPoint" />
          </mxGeometry>
        </mxCell>
        <mxCell id="v6x6SdG7z8RjegQlW21O-46" value="&lt;font style=&quot;font-size: 20px;&quot;&gt;&lt;b&gt;&amp;lt;&amp;lt;include&amp;gt;&amp;gt;&lt;/b&gt;&lt;/font&gt;" style="endArrow=open;endSize=12;dashed=1;html=1;rounded=0;fontSize=15;exitX=1;exitY=0.5;exitDx=0;exitDy=0;strokeWidth=3;" parent="1" source="v6x6SdG7z8RjegQlW21O-11" target="v6x6SdG7z8RjegQlW21O-42" edge="1">
          <mxGeometry width="160" relative="1" as="geometry">
            <mxPoint x="717.7340000000004" y="349.0279999999998" as="sourcePoint" />
            <mxPoint x="1319.2641926202846" y="1006.7459886296124" as="targetPoint" />
          </mxGeometry>
        </mxCell>
        <mxCell id="v6x6SdG7z8RjegQlW21O-47" value="&lt;font style=&quot;font-size: 20px;&quot;&gt;&lt;b&gt;&amp;lt;&amp;lt;include&amp;gt;&amp;gt;&lt;/b&gt;&lt;/font&gt;" style="endArrow=open;endSize=12;dashed=1;html=1;rounded=0;fontSize=15;exitX=1;exitY=0.5;exitDx=0;exitDy=0;entryX=0;entryY=0;entryDx=0;entryDy=0;strokeWidth=3;" parent="1" source="v6x6SdG7z8RjegQlW21O-12" target="v6x6SdG7z8RjegQlW21O-42" edge="1">
          <mxGeometry width="160" relative="1" as="geometry">
            <mxPoint x="712.3800000000047" y="492.5" as="sourcePoint" />
            <mxPoint x="1309.7611168472854" y="1009.4708439658148" as="targetPoint" />
          </mxGeometry>
        </mxCell>
        <mxCell id="v6x6SdG7z8RjegQlW21O-48" value="&lt;font style=&quot;font-size: 20px;&quot;&gt;&lt;b&gt;&amp;lt;&amp;lt;include&amp;gt;&amp;gt;&lt;/b&gt;&lt;/font&gt;" style="endArrow=open;endSize=12;dashed=1;html=1;rounded=0;fontSize=15;entryX=0.027;entryY=0.31;entryDx=0;entryDy=0;entryPerimeter=0;strokeWidth=3;" parent="1" source="v6x6SdG7z8RjegQlW21O-13" target="v6x6SdG7z8RjegQlW21O-42" edge="1">
          <mxGeometry width="160" relative="1" as="geometry">
            <mxPoint x="712.3800000000069" y="669" as="sourcePoint" />
            <mxPoint x="1289.0053565007988" y="1018.1003698723703" as="targetPoint" />
          </mxGeometry>
        </mxCell>
        <mxCell id="v6x6SdG7z8RjegQlW21O-49" value="&lt;font style=&quot;font-size: 20px;&quot;&gt;&lt;b&gt;&amp;lt;&amp;lt;include&amp;gt;&amp;gt;&lt;/b&gt;&lt;/font&gt;" style="endArrow=open;endSize=12;dashed=1;html=1;rounded=0;fontSize=15;entryX=0;entryY=0.5;entryDx=0;entryDy=0;strokeWidth=3;" parent="1" source="v6x6SdG7z8RjegQlW21O-14" target="v6x6SdG7z8RjegQlW21O-42" edge="1">
          <mxGeometry width="160" relative="1" as="geometry">
            <mxPoint x="685.2733189230494" y="870.9992697897865" as="sourcePoint" />
            <mxPoint x="1262.94" y="1036.9599999999996" as="targetPoint" />
          </mxGeometry>
        </mxCell>
        <mxCell id="v6x6SdG7z8RjegQlW21O-50" value="&lt;font style=&quot;font-size: 20px;&quot;&gt;&lt;b&gt;&amp;lt;&amp;lt;include&amp;gt;&amp;gt;&lt;/b&gt;&lt;/font&gt;" style="endArrow=open;endSize=12;dashed=1;html=1;rounded=0;fontSize=15;strokeWidth=3;" parent="1" source="v6x6SdG7z8RjegQlW21O-15" target="v6x6SdG7z8RjegQlW21O-42" edge="1">
          <mxGeometry width="160" relative="1" as="geometry">
            <mxPoint x="691.8135917693417" y="1017.5165125571639" as="sourcePoint" />
            <mxPoint x="1257" y="1059" as="targetPoint" />
          </mxGeometry>
        </mxCell>
        <mxCell id="v6x6SdG7z8RjegQlW21O-51" value="&lt;font style=&quot;font-size: 20px;&quot;&gt;&lt;b&gt;&amp;lt;&amp;lt;include&amp;gt;&amp;gt;&lt;/b&gt;&lt;/font&gt;" style="endArrow=open;endSize=12;dashed=1;html=1;rounded=0;fontSize=15;strokeWidth=3;" parent="1" source="v6x6SdG7z8RjegQlW21O-16" target="v6x6SdG7z8RjegQlW21O-42" edge="1">
          <mxGeometry width="160" relative="1" as="geometry">
            <mxPoint x="684.5159699764959" y="1151.0565689444943" as="sourcePoint" />
            <mxPoint x="1267" y="1069" as="targetPoint" />
          </mxGeometry>
        </mxCell>
        <mxCell id="v6x6SdG7z8RjegQlW21O-52" value="&lt;font style=&quot;font-size: 20px;&quot;&gt;&lt;b&gt;&amp;lt;&amp;lt;include&amp;gt;&amp;gt;&lt;/b&gt;&lt;/font&gt;" style="endArrow=open;endSize=12;dashed=1;html=1;rounded=0;fontSize=15;strokeWidth=3;" parent="1" source="v6x6SdG7z8RjegQlW21O-17" target="v6x6SdG7z8RjegQlW21O-42" edge="1">
          <mxGeometry width="160" relative="1" as="geometry">
            <mxPoint x="699.7478821681984" y="1314.3835965808935" as="sourcePoint" />
            <mxPoint x="1277" y="1079" as="targetPoint" />
          </mxGeometry>
        </mxCell>
        <mxCell id="v6x6SdG7z8RjegQlW21O-53" value="&lt;font style=&quot;font-size: 20px;&quot;&gt;&lt;b&gt;&amp;lt;&amp;lt;include&amp;gt;&amp;gt;&lt;/b&gt;&lt;/font&gt;" style="endArrow=open;endSize=12;dashed=1;html=1;rounded=0;fontSize=15;strokeWidth=3;" parent="1" source="v6x6SdG7z8RjegQlW21O-18" target="v6x6SdG7z8RjegQlW21O-42" edge="1">
          <mxGeometry width="160" relative="1" as="geometry">
            <mxPoint x="659.7061141426552" y="1488.501017988538" as="sourcePoint" />
            <mxPoint x="1287" y="1089" as="targetPoint" />
          </mxGeometry>
        </mxCell>
        <mxCell id="v6x6SdG7z8RjegQlW21O-54" value="&lt;font style=&quot;font-size: 20px;&quot;&gt;&lt;b&gt;&amp;lt;&amp;lt;include&amp;gt;&amp;gt;&lt;/b&gt;&lt;/font&gt;" style="endArrow=open;endSize=12;dashed=1;html=1;rounded=0;fontSize=15;strokeWidth=3;" parent="1" source="v6x6SdG7z8RjegQlW21O-19" target="v6x6SdG7z8RjegQlW21O-42" edge="1">
          <mxGeometry width="160" relative="1" as="geometry">
            <mxPoint x="684.6028947150376" y="1690.631867440154" as="sourcePoint" />
            <mxPoint x="1297" y="1099" as="targetPoint" />
          </mxGeometry>
        </mxCell>
        <mxCell id="v6x6SdG7z8RjegQlW21O-55" value="&lt;font style=&quot;font-size: 20px;&quot;&gt;&lt;b&gt;&amp;lt;&amp;lt;include&amp;gt;&amp;gt;&lt;/b&gt;&lt;/font&gt;" style="endArrow=open;endSize=12;dashed=1;html=1;rounded=0;fontSize=15;strokeWidth=3;" parent="1" source="v6x6SdG7z8RjegQlW21O-20" target="v6x6SdG7z8RjegQlW21O-42" edge="1">
          <mxGeometry width="160" relative="1" as="geometry">
            <mxPoint x="674.5416618436425" y="1868.245757746406" as="sourcePoint" />
            <mxPoint x="1307" y="1109" as="targetPoint" />
          </mxGeometry>
        </mxCell>
        <mxCell id="v6x6SdG7z8RjegQlW21O-58" value="&lt;b&gt;&lt;font style=&quot;font-size: 30px;&quot;&gt;Plateforme de gestion d&#39;un école de compétence digitale&amp;nbsp;&lt;/font&gt;&lt;/b&gt;" style="text;html=1;strokeColor=none;fillColor=none;align=center;verticalAlign=middle;whiteSpace=wrap;rounded=0;fillStyle=solid;fontSize=15;" parent="1" vertex="1">
          <mxGeometry x="487.5" y="-287" width="869" height="30" as="geometry" />
        </mxCell>
        <mxCell id="v6x6SdG7z8RjegQlW21O-59" value="&lt;h1&gt;Heading&lt;/h1&gt;&lt;p&gt;Lorem ipsum dolor sit amet, consectetur adipisicing elit, sed do eiusmod tempor incididunt ut labore et dolore magna aliqua.&lt;/p&gt;" style="text;html=1;strokeColor=none;fillColor=none;spacing=5;spacingTop=-20;whiteSpace=wrap;overflow=hidden;rounded=0;fillStyle=solid;fontSize=20;" parent="1" vertex="1">
          <mxGeometry x="846" y="-746" width="190" height="120" as="geometry" />
        </mxCell>
        <mxCell id="v6x6SdG7z8RjegQlW21O-60" value="&lt;h1&gt;Heading&lt;/h1&gt;&lt;p&gt;Lorem ipsum dolor sit amet, consectetur adipisicing elit, sed do eiusmod tempor incididunt ut labore et dolore magna aliqua.&lt;/p&gt;" style="text;html=1;strokeColor=none;fillColor=none;spacing=5;spacingTop=-20;whiteSpace=wrap;overflow=hidden;rounded=0;fillStyle=solid;fontSize=20;" parent="1" vertex="1">
          <mxGeometry x="-603" y="651" width="190" height="120" as="geometry" />
        </mxCell>
        <mxCell id="v6x6SdG7z8RjegQlW21O-61" value="&lt;h1&gt;Heading&lt;/h1&gt;&lt;p&gt;Lorem ipsum dolor sit amet, consectetur adipisicing elit, sed do eiusmod tempor incididunt ut labore et dolore magna aliqua.&lt;/p&gt;" style="text;html=1;strokeColor=none;fillColor=none;spacing=5;spacingTop=-20;whiteSpace=wrap;overflow=hidden;rounded=0;fillStyle=solid;fontSize=20;" parent="1" vertex="1">
          <mxGeometry x="827" y="2703" width="190" height="120" as="geometry" />
        </mxCell>
        <mxCell id="v6x6SdG7z8RjegQlW21O-62" value="&lt;h1&gt;Heading&lt;/h1&gt;&lt;p&gt;Lorem ipsum dolor sit amet, consectetur adipisicing elit, sed do eiusmod tempor incididunt ut labore et dolore magna aliqua.&lt;/p&gt;" style="text;html=1;strokeColor=none;fillColor=none;spacing=5;spacingTop=-20;whiteSpace=wrap;overflow=hidden;rounded=0;fillStyle=solid;fontSize=20;" parent="1" vertex="1">
          <mxGeometry x="2308" y="693" width="190" height="120" as="geometry" />
        </mxCell>
        <mxCell id="XpoNcsx5diuqANsuih4O-1" value="" style="endArrow=block;endSize=16;endFill=0;html=1;rounded=0;fontSize=30;strokeWidth=3;" edge="1" parent="1">
          <mxGeometry width="160" relative="1" as="geometry">
            <mxPoint x="-80" y="589" as="sourcePoint" />
            <mxPoint x="-80" y="191" as="targetPoint" />
          </mxGeometry>
        </mxCell>
        <mxCell id="XpoNcsx5diuqANsuih4O-3" value="" style="endArrow=block;endSize=16;endFill=0;html=1;rounded=0;fontSize=30;strokeWidth=3;" edge="1" parent="1">
          <mxGeometry width="160" relative="1" as="geometry">
            <mxPoint x="-70" y="845" as="sourcePoint" />
            <mxPoint x="-76" y="1576.7142857142858" as="targetPoint" />
          </mxGeometry>
        </mxCell>
      </root>
    </mxGraphModel>
  </diagram>
</mxfile>
